<svg width="101" height="73" viewBox="0 0 101 73" fill="none" xmlns="http://www.w3.org/2000/svg">
<path d="M31.0557 70.2793C30.9814 70.1512 30.9151 70.0187 30.8572 69.8827C30.4581 68.98 30.3355 67.9837 30.5041 67.0144H6.86348L41.9963 6.64454L53.5307 26.4429L56.8745 20.6652L46.8198 3.37049C46.338 2.48474 45.6364 1.73103 44.7794 1.17827C43.9223 0.625512 42.937 0.291338 41.9135 0.206299C40.8921 0.251631 39.9043 0.575938 39.0624 1.14233C38.2205 1.70872 37.5582 2.49446 37.151 3.41016L1.55879 64.5124C1.02677 65.3751 0.720022 66.3522 0.66553 67.3578C0.611039 68.3634 0.810473 69.3666 1.24629 70.2793C1.79365 71.1222 2.57164 71.7986 3.49226 72.2322C4.41289 72.6657 5.4394 72.839 6.45567 72.7326H36.2666C35.2502 72.8407 34.2231 72.6681 33.3021 72.2344C32.3812 71.8007 31.6034 71.1233 31.0572 70.2793H31.0557Z" fill="#00C492"/>
<path d="M99.5931 64.5109L70.3447 14.2057C69.8649 13.3105 69.162 12.5478 68.3007 11.9879C67.4394 11.4279 66.4475 11.0888 65.4166 11.0018C64.3965 11.045 63.4094 11.3673 62.5679 11.9319C61.7264 12.4965 61.0643 13.2807 60.6573 14.195L56.8745 20.6638L60.2401 26.4429L65.4479 17.4401L94.3838 67.0129H83.3807C83.5213 67.8323 83.4421 68.6733 83.151 69.454C83.0896 69.6266 83.0128 69.7935 82.9213 69.9529L82.8275 70.1359C82.2298 70.9603 81.4332 71.6282 80.5083 72.0806C79.5834 72.5329 78.5585 72.7558 77.5244 72.7296H94.7369C95.7711 72.7566 96.7963 72.5341 97.7213 72.0817C98.6464 71.6293 99.4428 70.9609 100.04 70.1359C100.511 69.2513 100.719 68.2553 100.64 67.261C100.561 66.2668 100.199 65.314 99.5931 64.5109Z" fill="#008776"/>
<path d="M82.8292 70.1375L82.9229 69.9544C83.0139 69.795 83.0902 69.6281 83.151 69.4555C83.4422 68.6749 83.5213 67.8339 83.3807 67.0145C83.2183 66.1308 82.8933 65.2831 82.4213 64.5124L60.262 26.4429L56.876 20.6653L53.5104 26.4429L31.3588 64.5124C30.9288 65.2923 30.6397 66.1387 30.5041 67.0145C30.3258 67.9815 30.4381 68.9782 30.8276 69.8843C30.8853 70.0203 30.9516 70.1528 31.026 70.2809C31.5736 71.1235 32.3516 71.7996 33.2722 72.2329C34.1929 72.6662 35.2193 72.8393 36.2354 72.7326H77.4932C78.5324 72.7626 79.563 72.5416 80.4936 72.0891C81.4242 71.6367 82.2259 70.9668 82.8276 70.139L82.8292 70.1375ZM56.8745 32.2221L77.1292 67.013H36.6291L56.8745 32.2221Z" fill="#2D4A5D"/>
</svg>
